<svg width="1000" height="522" viewBox="0 0 1000 522" fill="none" xmlns="http://www.w3.org/2000/svg">
<g clip-path="url(#clip0)">
<path d="M458.868 125V112.203H462.48C463.594 112.203 464.578 112.449 465.434 112.941C466.289 113.434 466.948 114.134 467.411 115.042C467.88 115.95 468.117 116.993 468.123 118.171V118.988C468.123 120.195 467.889 121.253 467.42 122.161C466.957 123.069 466.292 123.767 465.425 124.253C464.563 124.739 463.559 124.988 462.41 125H458.868ZM460.556 113.592V123.62H462.331C463.632 123.62 464.643 123.216 465.363 122.407C466.09 121.599 466.453 120.447 466.453 118.953V118.206C466.453 116.753 466.11 115.625 465.425 114.822C464.745 114.014 463.778 113.604 462.524 113.592H460.556ZM472.192 125H470.566V115.49H472.192V125ZM470.435 112.968C470.435 112.704 470.514 112.481 470.672 112.3C470.836 112.118 471.076 112.027 471.393 112.027C471.709 112.027 471.949 112.118 472.113 112.3C472.277 112.481 472.359 112.704 472.359 112.968C472.359 113.231 472.277 113.451 472.113 113.627C471.949 113.803 471.709 113.891 471.393 113.891C471.076 113.891 470.836 113.803 470.672 113.627C470.514 113.451 470.435 113.231 470.435 112.968ZM480.34 122.478C480.34 122.038 480.173 121.698 479.839 121.458C479.511 121.212 478.934 121.001 478.107 120.825C477.287 120.649 476.634 120.438 476.147 120.192C475.667 119.946 475.31 119.653 475.075 119.313C474.847 118.974 474.732 118.569 474.732 118.101C474.732 117.321 475.061 116.662 475.717 116.123C476.379 115.584 477.223 115.314 478.248 115.314C479.326 115.314 480.199 115.593 480.867 116.149C481.541 116.706 481.878 117.418 481.878 118.285H480.243C480.243 117.84 480.053 117.456 479.672 117.134C479.297 116.812 478.822 116.65 478.248 116.65C477.656 116.65 477.193 116.779 476.859 117.037C476.525 117.295 476.358 117.632 476.358 118.048C476.358 118.44 476.514 118.736 476.824 118.936C477.135 119.135 477.694 119.325 478.503 119.507C479.317 119.688 479.977 119.905 480.48 120.157C480.984 120.409 481.356 120.714 481.597 121.071C481.843 121.423 481.966 121.854 481.966 122.363C481.966 123.213 481.626 123.896 480.946 124.411C480.267 124.921 479.385 125.176 478.301 125.176C477.539 125.176 476.865 125.041 476.279 124.771C475.693 124.502 475.233 124.127 474.899 123.646C474.571 123.16 474.407 122.636 474.407 122.073H476.033C476.062 122.618 476.279 123.052 476.684 123.374C477.094 123.69 477.633 123.849 478.301 123.849C478.916 123.849 479.408 123.726 479.777 123.479C480.152 123.228 480.34 122.894 480.34 122.478ZM486.29 113.188V115.49H488.065V116.747H486.29V122.645C486.29 123.025 486.369 123.312 486.527 123.506C486.686 123.693 486.955 123.787 487.336 123.787C487.523 123.787 487.781 123.752 488.109 123.682V125C487.682 125.117 487.266 125.176 486.861 125.176C486.135 125.176 485.587 124.956 485.218 124.517C484.849 124.077 484.664 123.453 484.664 122.645V116.747H482.933V115.49H484.664V113.188H486.29ZM494.569 116.949C494.323 116.908 494.057 116.888 493.77 116.888C492.703 116.888 491.979 117.342 491.599 118.25V125H489.973V115.49H491.555L491.581 116.589C492.114 115.739 492.87 115.314 493.849 115.314C494.165 115.314 494.405 115.355 494.569 115.438V116.949ZM497.839 125H496.213V115.49H497.839V125ZM496.081 112.968C496.081 112.704 496.16 112.481 496.318 112.3C496.482 112.118 496.723 112.027 497.039 112.027C497.355 112.027 497.596 112.118 497.76 112.3C497.924 112.481 498.006 112.704 498.006 112.968C498.006 113.231 497.924 113.451 497.76 113.627C497.596 113.803 497.355 113.891 497.039 113.891C496.723 113.891 496.482 113.803 496.318 113.627C496.16 113.451 496.081 113.231 496.081 112.968ZM508.5 120.351C508.5 121.804 508.166 122.973 507.498 123.857C506.83 124.736 505.934 125.176 504.809 125.176C503.607 125.176 502.679 124.751 502.022 123.901L501.943 125H500.449V111.5H502.075V116.536C502.731 115.722 503.637 115.314 504.791 115.314C505.945 115.314 506.851 115.751 507.507 116.624C508.169 117.497 508.5 118.692 508.5 120.21V120.351ZM506.874 120.166C506.874 119.059 506.66 118.203 506.232 117.6C505.805 116.996 505.189 116.694 504.387 116.694C503.314 116.694 502.544 117.192 502.075 118.188V122.302C502.573 123.298 503.35 123.796 504.404 123.796C505.184 123.796 505.79 123.494 506.224 122.891C506.657 122.287 506.874 121.379 506.874 120.166ZM516.428 124.06C515.795 124.804 514.866 125.176 513.642 125.176C512.628 125.176 511.854 124.883 511.321 124.297C510.794 123.705 510.527 122.832 510.521 121.678V115.49H512.147V121.634C512.147 123.075 512.733 123.796 513.905 123.796C515.147 123.796 515.974 123.333 516.384 122.407V115.49H518.01V125H516.463L516.428 124.06ZM522.694 113.188V115.49H524.47V116.747H522.694V122.645C522.694 123.025 522.773 123.312 522.932 123.506C523.09 123.693 523.359 123.787 523.74 123.787C523.928 123.787 524.186 123.752 524.514 123.682V125C524.086 125.117 523.67 125.176 523.266 125.176C522.539 125.176 521.991 124.956 521.622 124.517C521.253 124.077 521.068 123.453 521.068 122.645V116.747H519.337V115.49H521.068V113.188H522.694ZM525.771 120.157C525.771 119.226 525.952 118.388 526.315 117.644C526.685 116.899 527.194 116.325 527.845 115.921C528.501 115.517 529.248 115.314 530.086 115.314C531.381 115.314 532.427 115.763 533.224 116.659C534.026 117.556 534.428 118.748 534.428 120.236V120.351C534.428 121.276 534.249 122.108 533.892 122.847C533.54 123.579 533.033 124.15 532.371 124.561C531.715 124.971 530.959 125.176 530.104 125.176C528.814 125.176 527.769 124.728 526.966 123.831C526.169 122.935 525.771 121.748 525.771 120.271V120.157ZM527.405 120.351C527.405 121.405 527.648 122.252 528.135 122.891C528.627 123.529 529.283 123.849 530.104 123.849C530.93 123.849 531.586 123.526 532.072 122.882C532.559 122.231 532.802 121.323 532.802 120.157C532.802 119.114 532.553 118.271 532.055 117.626C531.562 116.976 530.906 116.65 530.086 116.65C529.283 116.65 528.636 116.97 528.144 117.608C527.651 118.247 527.405 119.161 527.405 120.351ZM541.063 116.949C540.817 116.908 540.551 116.888 540.264 116.888C539.197 116.888 538.474 117.342 538.093 118.25V125H536.467V115.49H538.049L538.075 116.589C538.608 115.739 539.364 115.314 540.343 115.314C540.659 115.314 540.899 115.355 541.063 115.438V116.949ZM548.104 122.478C548.104 122.038 547.937 121.698 547.603 121.458C547.274 121.212 546.697 121.001 545.871 120.825C545.051 120.649 544.397 120.438 543.911 120.192C543.431 119.946 543.073 119.653 542.839 119.313C542.61 118.974 542.496 118.569 542.496 118.101C542.496 117.321 542.824 116.662 543.48 116.123C544.143 115.584 544.986 115.314 546.012 115.314C547.09 115.314 547.963 115.593 548.631 116.149C549.305 116.706 549.642 117.418 549.642 118.285H548.007C548.007 117.84 547.816 117.456 547.436 117.134C547.061 116.812 546.586 116.65 546.012 116.65C545.42 116.65 544.957 116.779 544.623 117.037C544.289 117.295 544.122 117.632 544.122 118.048C544.122 118.44 544.277 118.736 544.588 118.936C544.898 119.135 545.458 119.325 546.267 119.507C547.081 119.688 547.74 119.905 548.244 120.157C548.748 120.409 549.12 120.714 549.36 121.071C549.606 121.423 549.729 121.854 549.729 122.363C549.729 123.213 549.39 123.896 548.71 124.411C548.03 124.921 547.148 125.176 546.064 125.176C545.303 125.176 544.629 125.041 544.043 124.771C543.457 124.502 542.997 124.127 542.663 123.646C542.335 123.16 542.171 122.636 542.171 122.073H543.797C543.826 122.618 544.043 123.052 544.447 123.374C544.857 123.69 545.396 123.849 546.064 123.849C546.68 123.849 547.172 123.726 547.541 123.479C547.916 123.228 548.104 122.894 548.104 122.478Z" fill="black"/>
</g>
<path d="M884.758 461.889C860.917 461.68 837.113 459.934 813.497 456.661C812.667 456.547 811.838 456.422 811.009 456.307L812.256 233.031C813.08 232.375 813.913 231.73 814.757 231.105C817.549 229.02 820.42 227.066 823.39 225.273C837.698 216.652 854.45 212.706 866.008 216.661L866.188 216.732C868.719 217.585 871.056 218.93 873.066 220.69C883.216 229.707 881.524 247.938 873.331 264.482C889.574 249.643 910.071 237.827 928.366 236.929C946.211 236.049 958.959 245.38 969.793 255.501C970.151 255.833 970.499 256.165 970.847 256.497C971.027 256.658 971.196 256.829 971.375 256.99C979.631 264.886 987.769 274.092 986.785 287.417C985.703 302.031 973.463 318.233 959.199 329.593C944.945 340.954 928.753 348.503 912.95 356.155C897.157 363.817 880.96 372.107 867.461 384.401C888.525 367.749 912.49 354.322 935.798 349.363C959.106 344.403 981.492 348.768 992.469 363.609C995.699 368.115 997.803 373.329 998.604 378.814C998.711 379.454 998.797 380.105 998.874 380.766C1000.44 394.504 995.685 410.908 984.327 424.865C971.821 440.235 953.281 450.892 935.681 456.194C918.081 461.496 901.138 462.061 884.758 461.889Z" fill="#F2F2F2"/>
<path d="M811.793 315.809L811.817 311.54C812.665 310.184 813.502 308.822 814.33 307.453C814.865 306.606 815.38 305.749 815.904 304.892C824.554 290.73 832.85 276.48 840.794 262.141C848.744 247.815 856.328 233.417 863.545 218.947C863.712 218.563 864.009 218.25 864.382 218.062C864.756 217.874 865.184 217.823 865.591 217.918C865.645 217.934 865.695 217.958 865.741 217.989C866.12 218.191 866.277 218.642 865.953 219.301C865.064 221.075 864.174 222.861 863.264 224.635C855.922 239.145 848.215 253.592 840.141 267.977C832.071 282.352 823.644 296.645 814.861 310.856C814.679 311.155 814.488 311.454 814.306 311.753C813.469 313.108 812.631 314.454 811.793 315.809Z" fill="white"/>
<path d="M811.486 370.858L811.501 368.218C812.334 367.623 813.167 367.038 814.001 366.442C833.619 352.452 853.238 338.465 872.856 324.48C904.975 301.579 937.093 278.685 969.211 255.798C969.384 255.662 969.582 255.561 969.793 255.501C970.504 255.305 970.921 255.828 970.848 256.497C970.807 256.779 970.707 257.05 970.554 257.29C970.401 257.531 970.198 257.736 969.96 257.892C951.948 270.732 933.942 283.568 915.944 296.401C883.986 319.183 852.031 341.961 820.08 364.737C818.052 366.185 816.014 367.634 813.986 369.082C813.153 369.678 812.319 370.273 811.486 370.858Z" fill="white"/>
<path d="M826.818 429.675C822.368 429.54 817.99 429.246 813.652 428.861C812.822 428.787 811.993 428.712 811.163 428.637L811.179 425.867C812.008 425.952 812.838 426.037 813.667 426.111C819.934 426.697 826.272 427.112 832.782 427.168C850.83 427.242 868.839 425.483 886.532 421.919C905.582 418.13 924.267 412.69 942.373 405.66C961.471 398.282 979.946 389.386 997.623 379.059C997.911 378.864 998.259 378.778 998.604 378.814C999.394 378.928 999.628 379.98 998.874 380.765C998.726 380.921 998.556 381.054 998.371 381.163C996.174 382.44 993.97 383.695 991.76 384.926C973.985 394.873 955.445 403.387 936.317 410.387C918.151 417.054 899.438 422.126 880.391 425.544C862.721 428.746 844.77 430.13 826.818 429.675V429.675Z" fill="white"/>
<path d="M804.822 39H197.822C195.51 39.0021 193.294 39.9215 191.659 41.5564C190.024 43.1912 189.105 45.408 189.103 47.72V459.04C189.105 461.352 190.024 463.569 191.659 465.204C193.294 466.839 195.51 467.758 197.822 467.76H804.822C806.083 467.76 807.329 467.487 808.474 466.958C809.618 466.43 810.635 465.659 811.453 464.7C811.522 464.625 811.585 464.545 811.643 464.46C812.163 463.824 812.585 463.112 812.893 462.35C813.331 461.302 813.556 460.176 813.552 459.04V47.7201C813.55 45.4064 812.629 43.1884 810.992 41.5533C809.355 39.9182 807.136 38.9999 804.822 39V39ZM811.063 459.04C811.064 460.257 810.705 461.446 810.032 462.46C809.435 463.352 808.623 464.081 807.672 464.58C806.792 465.035 805.814 465.272 804.822 465.27H197.822C196.171 465.268 194.587 464.611 193.419 463.443C192.251 462.275 191.594 460.692 191.592 459.04V47.7201C191.594 46.0684 192.251 44.4849 193.419 43.317C194.587 42.149 196.171 41.492 197.822 41.49H804.822C806.476 41.4898 808.061 42.1458 809.232 43.3139C810.402 44.482 811.06 46.0668 811.063 47.7201V459.04Z" fill="#3F3D56"/>
<path d="M812.302 73.9492H190.345V76.4421H812.302V73.9492Z" fill="#3F3D56"/>
<path d="M211.534 65.1746C215.664 65.1746 219.013 61.8264 219.013 57.6962C219.013 53.5659 215.664 50.2177 211.534 50.2177C207.404 50.2177 204.056 53.5659 204.056 57.6962C204.056 61.8264 207.404 65.1746 211.534 65.1746Z" fill="#3F3D56"/>
<path d="M233.035 65.1746C237.165 65.1746 240.513 61.8264 240.513 57.6962C240.513 53.5659 237.165 50.2177 233.035 50.2177C228.904 50.2177 225.556 53.5659 225.556 57.6962C225.556 61.8264 228.904 65.1746 233.035 65.1746Z" fill="#3F3D56"/>
<path d="M254.535 65.1746C258.666 65.1746 262.014 61.8264 262.014 57.6962C262.014 53.5659 258.666 50.2177 254.535 50.2177C250.405 50.2177 247.057 53.5659 247.057 57.6962C247.057 61.8264 250.405 65.1746 254.535 65.1746Z" fill="#3F3D56"/>
<path d="M657.422 131.652H345.422C341.974 131.652 338.668 130.282 336.23 127.844C333.792 125.406 332.422 122.1 332.422 118.652C332.422 115.204 333.792 111.898 336.23 109.46C338.668 107.022 341.974 105.652 345.422 105.652H657.422C660.87 105.652 664.177 107.022 666.615 109.46C669.052 111.898 670.422 115.204 670.422 118.652C670.422 122.1 669.052 125.406 666.615 127.844C664.177 130.282 660.87 131.652 657.422 131.652ZM345.422 107.652C342.505 107.652 339.707 108.811 337.644 110.874C335.581 112.937 334.422 115.735 334.422 118.652C334.422 121.569 335.581 124.367 337.644 126.43C339.707 128.493 342.505 129.652 345.422 129.652H657.422C660.34 129.652 663.137 128.493 665.2 126.43C667.263 124.367 668.422 121.569 668.422 118.652C668.422 115.735 667.263 112.937 665.2 110.874C663.137 108.811 660.34 107.652 657.422 107.652H345.422Z" fill="#3F3D56"/>
<path d="M348.028 211.152H320.028C317.907 211.152 315.872 210.309 314.371 208.809C312.871 207.309 312.028 205.274 312.028 203.152C312.028 201.03 312.871 198.995 314.371 197.495C315.872 195.995 317.907 195.152 320.028 195.152H348.028C350.15 195.152 352.185 195.995 353.685 197.495C355.185 198.995 356.028 201.03 356.028 203.152C356.028 205.274 355.185 207.309 353.685 208.809C352.185 210.309 350.15 211.152 348.028 211.152Z" fill="#CCCCCC"/>
<path d="M381.028 238.152H320.028C317.907 238.152 315.872 237.309 314.371 235.809C312.871 234.309 312.028 232.274 312.028 230.152C312.028 228.03 312.871 225.995 314.371 224.495C315.872 222.995 317.907 222.152 320.028 222.152H381.028C383.15 222.152 385.185 222.995 386.685 224.495C388.185 225.995 389.028 228.03 389.028 230.152C389.028 232.274 388.185 234.309 386.685 235.809C385.185 237.309 383.15 238.152 381.028 238.152Z" fill="#CCCCCC"/>
<path d="M353.028 329.152H325.028C322.907 329.152 320.872 328.309 319.371 326.809C317.871 325.309 317.028 323.274 317.028 321.152C317.028 319.03 317.871 316.995 319.371 315.495C320.872 313.995 322.907 313.152 325.028 313.152H353.028C355.15 313.152 357.185 313.995 358.685 315.495C360.185 316.995 361.028 319.03 361.028 321.152C361.028 323.274 360.185 325.309 358.685 326.809C357.185 328.309 355.15 329.152 353.028 329.152Z" fill="#CCCCCC"/>
<path d="M386.028 356.152H325.028C322.907 356.152 320.872 355.309 319.371 353.809C317.871 352.309 317.028 350.274 317.028 348.152C317.028 346.03 317.871 343.995 319.371 342.495C320.872 340.995 322.907 340.152 325.028 340.152H386.028C388.15 340.152 390.185 340.995 391.685 342.495C393.185 343.995 394.028 346.03 394.028 348.152C394.028 350.274 393.185 352.309 391.685 353.809C390.185 355.309 388.15 356.152 386.028 356.152Z" fill="#CCCCCC"/>
<path d="M537.028 326.152H509.028C506.907 326.152 504.872 325.309 503.371 323.809C501.871 322.309 501.028 320.274 501.028 318.152C501.028 316.03 501.871 313.995 503.371 312.495C504.872 310.995 506.907 310.152 509.028 310.152H537.028C539.15 310.152 541.185 310.995 542.685 312.495C544.185 313.995 545.028 316.03 545.028 318.152C545.028 320.274 544.185 322.309 542.685 323.809C541.185 325.309 539.15 326.152 537.028 326.152Z" fill="#CCCCCC"/>
<path d="M570.028 353.152H509.028C506.907 353.152 504.872 352.309 503.371 350.809C501.871 349.309 501.028 347.274 501.028 345.152C501.028 343.03 501.871 340.995 503.371 339.495C504.872 337.995 506.907 337.152 509.028 337.152H570.028C572.15 337.152 574.185 337.995 575.685 339.495C577.185 340.995 578.028 343.03 578.028 345.152C578.028 347.274 577.185 349.309 575.685 350.809C574.185 352.309 572.15 353.152 570.028 353.152Z" fill="#CCCCCC"/>
<path d="M534.028 216.152H506.028C503.907 216.152 501.872 215.309 500.371 213.809C498.871 212.309 498.028 210.274 498.028 208.152C498.028 206.03 498.871 203.995 500.371 202.495C501.872 200.995 503.907 200.152 506.028 200.152H534.028C536.15 200.152 538.185 200.995 539.685 202.495C541.185 203.995 542.028 206.03 542.028 208.152C542.028 210.274 541.185 212.309 539.685 213.809C538.185 215.309 536.15 216.152 534.028 216.152Z" fill="#CCCCCC"/>
<path d="M567.028 243.152H506.028C503.907 243.152 501.872 242.309 500.371 240.809C498.871 239.309 498.028 237.274 498.028 235.152C498.028 233.03 498.871 230.995 500.371 229.495C501.872 227.995 503.907 227.152 506.028 227.152H567.028C569.15 227.152 571.185 227.995 572.685 229.495C574.185 230.995 575.028 233.03 575.028 235.152C575.028 237.274 574.185 239.309 572.685 240.809C571.185 242.309 569.15 243.152 567.028 243.152Z" fill="#CCCCCC"/>
<path d="M721.029 210.152H693.029C690.907 210.152 688.872 209.309 687.372 207.809C685.871 206.309 685.029 204.274 685.029 202.152C685.029 200.03 685.871 197.995 687.372 196.495C688.872 194.995 690.907 194.152 693.029 194.152H721.029C723.15 194.152 725.185 194.995 726.685 196.495C728.186 197.995 729.029 200.03 729.029 202.152C729.029 204.274 728.186 206.309 726.685 207.809C725.185 209.309 723.15 210.152 721.029 210.152Z" fill="#CCCCCC"/>
<path d="M754.029 237.152H693.029C690.907 237.152 688.872 236.309 687.372 234.809C685.871 233.309 685.029 231.274 685.029 229.152C685.029 227.03 685.871 224.995 687.372 223.495C688.872 221.995 690.907 221.152 693.029 221.152H754.029C756.15 221.152 758.185 221.995 759.685 223.495C761.186 224.995 762.029 227.03 762.029 229.152C762.029 231.274 761.186 233.309 759.685 234.809C758.185 236.309 756.15 237.152 754.029 237.152Z" fill="#CCCCCC"/>
<path d="M456.627 361.652C473.195 361.652 486.627 348.221 486.627 331.652C486.627 315.083 473.195 301.652 456.627 301.652C440.058 301.652 426.627 315.083 426.627 331.652C426.627 348.221 440.058 361.652 456.627 361.652Z" fill="#6C63FF"/>
<path d="M456.627 361.652C473.195 361.652 486.627 348.221 486.627 331.652C486.627 315.083 473.195 301.652 456.627 301.652C440.058 301.652 426.627 315.083 426.627 331.652C426.627 348.221 440.058 361.652 456.627 361.652Z" fill="#6C63FF"/>
<path d="M456.627 332.152C454.847 332.152 453.107 331.624 451.627 330.635C450.147 329.646 448.993 328.241 448.312 326.596C447.631 324.952 447.453 323.142 447.8 321.396C448.147 319.651 449.004 318.047 450.263 316.788C451.522 315.53 453.125 314.672 454.871 314.325C456.617 313.978 458.427 314.156 460.071 314.837C461.716 315.518 463.121 316.672 464.11 318.152C465.099 319.632 465.627 321.372 465.627 323.152C465.624 325.538 464.675 327.826 462.988 329.513C461.301 331.2 459.013 332.149 456.627 332.152V332.152ZM456.627 316.152C455.242 316.152 453.889 316.563 452.738 317.332C451.587 318.101 450.69 319.194 450.16 320.473C449.63 321.752 449.491 323.16 449.761 324.518C450.032 325.876 450.698 327.123 451.677 328.102C452.656 329.081 453.903 329.748 455.261 330.018C456.619 330.288 458.027 330.149 459.306 329.619C460.585 329.09 461.678 328.192 462.447 327.041C463.216 325.89 463.627 324.537 463.627 323.152C463.625 321.296 462.887 319.517 461.574 318.205C460.262 316.893 458.483 316.154 456.627 316.152Z" fill="white"/>
<path d="M464.627 349.152H448.627C447.699 349.151 446.809 348.782 446.153 348.126C445.497 347.47 445.128 346.58 445.127 345.652C445.127 342.602 446.339 339.677 448.495 337.52C450.652 335.364 453.577 334.152 456.627 334.152C459.677 334.152 462.602 335.364 464.759 337.52C466.915 339.677 468.127 342.602 468.127 345.652C468.126 346.58 467.757 347.47 467.101 348.126C466.444 348.782 465.555 349.151 464.627 349.152ZM456.627 336.152C454.108 336.155 451.694 337.157 449.913 338.938C448.132 340.719 447.13 343.134 447.127 345.652C447.127 346.05 447.286 346.431 447.567 346.712C447.848 346.994 448.229 347.152 448.627 347.152H464.627C465.025 347.152 465.406 346.994 465.687 346.712C465.968 346.431 466.127 346.05 466.127 345.652C466.124 343.134 465.122 340.719 463.341 338.938C461.56 337.157 459.146 336.155 456.627 336.152V336.152Z" fill="white"/>
<path d="M271 362C287.569 362 301 348.569 301 332C301 315.431 287.569 302 271 302C254.431 302 241 315.431 241 332C241 348.569 254.431 362 271 362Z" fill="#6C63FF"/>
<path d="M271 362C287.569 362 301 348.569 301 332C301 315.431 287.569 302 271 302C254.431 302 241 315.431 241 332C241 348.569 254.431 362 271 362Z" fill="#6C63FF"/>
<path d="M271 332.5C269.22 332.5 267.48 331.972 266 330.983C264.52 329.994 263.367 328.589 262.685 326.944C262.004 325.3 261.826 323.49 262.173 321.744C262.52 319.999 263.378 318.395 264.636 317.136C265.895 315.878 267.499 315.02 269.244 314.673C270.99 314.326 272.8 314.504 274.444 315.185C276.089 315.866 277.495 317.02 278.483 318.5C279.472 319.98 280 321.72 280 323.5C279.998 325.886 279.048 328.174 277.361 329.861C275.674 331.548 273.386 332.498 271 332.5ZM271 316.5C269.616 316.5 268.262 316.911 267.111 317.68C265.96 318.449 265.063 319.542 264.533 320.821C264.003 322.101 263.865 323.508 264.135 324.866C264.405 326.224 265.072 327.471 266.051 328.45C267.029 329.429 268.277 330.096 269.635 330.366C270.992 330.636 272.4 330.497 273.679 329.967C274.958 329.438 276.051 328.54 276.821 327.389C277.59 326.238 278 324.885 278 323.5C277.998 321.644 277.26 319.865 275.948 318.553C274.635 317.241 272.856 316.502 271 316.5Z" fill="white"/>
<path d="M279 349.5H263C262.072 349.499 261.183 349.13 260.527 348.474C259.87 347.818 259.501 346.928 259.5 346C259.5 342.95 260.712 340.025 262.869 337.868C265.025 335.712 267.95 334.5 271 334.5C274.05 334.5 276.975 335.712 279.132 337.868C281.289 340.025 282.5 342.95 282.5 346C282.499 346.928 282.13 347.818 281.474 348.474C280.818 349.13 279.928 349.499 279 349.5ZM271 336.5C268.482 336.503 266.067 337.505 264.286 339.286C262.505 341.067 261.503 343.482 261.5 346C261.501 346.398 261.659 346.779 261.94 347.06C262.221 347.342 262.603 347.5 263 347.5H279C279.398 347.5 279.779 347.342 280.06 347.06C280.342 346.779 280.5 346.398 280.5 346C280.497 343.482 279.496 341.067 277.715 339.286C275.934 337.505 273.519 336.503 271 336.5Z" fill="white"/>
<path d="M271 253C287.569 253 301 239.569 301 223C301 206.431 287.569 193 271 193C254.431 193 241 206.431 241 223C241 239.569 254.431 253 271 253Z" fill="#6C63FF"/>
<path d="M271 253C287.569 253 301 239.569 301 223C301 206.431 287.569 193 271 193C254.431 193 241 206.431 241 223C241 239.569 254.431 253 271 253Z" fill="#6C63FF"/>
<path d="M271 223.5C269.22 223.5 267.48 222.972 266 221.983C264.52 220.994 263.367 219.589 262.685 217.944C262.004 216.3 261.826 214.49 262.173 212.744C262.52 210.999 263.378 209.395 264.636 208.136C265.895 206.878 267.499 206.02 269.244 205.673C270.99 205.326 272.8 205.504 274.444 206.185C276.089 206.866 277.495 208.02 278.483 209.5C279.472 210.98 280 212.72 280 214.5C279.998 216.886 279.048 219.174 277.361 220.861C275.674 222.548 273.386 223.498 271 223.5ZM271 207.5C269.616 207.5 268.262 207.911 267.111 208.68C265.96 209.449 265.063 210.542 264.533 211.821C264.003 213.101 263.865 214.508 264.135 215.866C264.405 217.224 265.072 218.471 266.051 219.45C267.029 220.429 268.277 221.096 269.635 221.366C270.992 221.636 272.4 221.497 273.679 220.967C274.958 220.438 276.051 219.54 276.821 218.389C277.59 217.238 278 215.885 278 214.5C277.998 212.644 277.26 210.865 275.948 209.553C274.635 208.241 272.856 207.502 271 207.5Z" fill="white"/>
<path d="M279 240.5H263C262.072 240.499 261.183 240.13 260.527 239.474C259.87 238.818 259.501 237.928 259.5 237C259.5 233.95 260.712 231.025 262.869 228.868C265.025 226.712 267.95 225.5 271 225.5C274.05 225.5 276.975 226.712 279.132 228.868C281.289 231.025 282.5 233.95 282.5 237C282.499 237.928 282.13 238.818 281.474 239.474C280.818 240.13 279.928 240.499 279 240.5ZM271 227.5C268.482 227.503 266.067 228.505 264.286 230.286C262.505 232.067 261.503 234.482 261.5 237C261.501 237.398 261.659 237.779 261.94 238.06C262.221 238.342 262.603 238.5 263 238.5H279C279.398 238.5 279.779 238.342 280.06 238.06C280.342 237.779 280.5 237.398 280.5 237C280.497 234.482 279.496 232.067 277.715 230.286C275.934 228.505 273.519 227.503 271 227.5Z" fill="white"/>
<path d="M457 254C473.569 254 487 240.569 487 224C487 207.431 473.569 194 457 194C440.431 194 427 207.431 427 224C427 240.569 440.431 254 457 254Z" fill="#6C63FF"/>
<path d="M457 254C473.569 254 487 240.569 487 224C487 207.431 473.569 194 457 194C440.431 194 427 207.431 427 224C427 240.569 440.431 254 457 254Z" fill="#6C63FF"/>
<path d="M457 224.5C455.22 224.5 453.48 223.972 452 222.983C450.52 221.994 449.367 220.589 448.685 218.944C448.004 217.3 447.826 215.49 448.173 213.744C448.52 211.999 449.378 210.395 450.636 209.136C451.895 207.878 453.499 207.02 455.244 206.673C456.99 206.326 458.8 206.504 460.444 207.185C462.089 207.866 463.495 209.02 464.483 210.5C465.472 211.98 466 213.72 466 215.5C465.998 217.886 465.048 220.174 463.361 221.861C461.674 223.548 459.386 224.498 457 224.5ZM457 208.5C455.616 208.5 454.262 208.911 453.111 209.68C451.96 210.449 451.063 211.542 450.533 212.821C450.003 214.101 449.865 215.508 450.135 216.866C450.405 218.224 451.072 219.471 452.051 220.45C453.029 221.429 454.277 222.096 455.635 222.366C456.992 222.636 458.4 222.497 459.679 221.967C460.958 221.438 462.051 220.54 462.821 219.389C463.59 218.238 464 216.885 464 215.5C463.998 213.644 463.26 211.865 461.948 210.553C460.635 209.241 458.856 208.502 457 208.5Z" fill="white"/>
<path d="M465 241.5H449C448.072 241.499 447.183 241.13 446.527 240.474C445.87 239.818 445.501 238.928 445.5 238C445.5 234.95 446.712 232.025 448.869 229.868C451.025 227.712 453.95 226.5 457 226.5C460.05 226.5 462.975 227.712 465.132 229.868C467.289 232.025 468.5 234.95 468.5 238C468.499 238.928 468.13 239.818 467.474 240.474C466.818 241.13 465.928 241.499 465 241.5ZM457 228.5C454.482 228.503 452.067 229.505 450.286 231.286C448.505 233.067 447.503 235.482 447.5 238C447.501 238.398 447.659 238.779 447.94 239.06C448.221 239.342 448.603 239.5 449 239.5H465C465.398 239.5 465.779 239.342 466.06 239.06C466.342 238.779 466.5 238.398 466.5 238C466.497 235.482 465.496 233.067 463.715 231.286C461.934 229.505 459.519 228.503 457 228.5Z" fill="white"/>
<path d="M457 254C473.569 254 487 240.569 487 224C487 207.431 473.569 194 457 194C440.431 194 427 207.431 427 224C427 240.569 440.431 254 457 254Z" fill="#6C63FF"/>
<path d="M457 254C473.569 254 487 240.569 487 224C487 207.431 473.569 194 457 194C440.431 194 427 207.431 427 224C427 240.569 440.431 254 457 254Z" fill="#6C63FF"/>
<path d="M457 224.5C455.22 224.5 453.48 223.972 452 222.983C450.52 221.994 449.367 220.589 448.685 218.944C448.004 217.3 447.826 215.49 448.173 213.744C448.52 211.999 449.378 210.395 450.636 209.136C451.895 207.878 453.499 207.02 455.244 206.673C456.99 206.326 458.8 206.504 460.444 207.185C462.089 207.866 463.495 209.02 464.483 210.5C465.472 211.98 466 213.72 466 215.5C465.998 217.886 465.048 220.174 463.361 221.861C461.674 223.548 459.386 224.498 457 224.5ZM457 208.5C455.616 208.5 454.262 208.911 453.111 209.68C451.96 210.449 451.063 211.542 450.533 212.821C450.003 214.101 449.865 215.508 450.135 216.866C450.405 218.224 451.072 219.471 452.051 220.45C453.029 221.429 454.277 222.096 455.635 222.366C456.992 222.636 458.4 222.497 459.679 221.967C460.958 221.438 462.051 220.54 462.821 219.389C463.59 218.238 464 216.885 464 215.5C463.998 213.644 463.26 211.865 461.948 210.553C460.635 209.241 458.856 208.502 457 208.5Z" fill="white"/>
<path d="M465 241.5H449C448.072 241.499 447.183 241.13 446.527 240.474C445.87 239.818 445.501 238.928 445.5 238C445.5 234.95 446.712 232.025 448.869 229.868C451.025 227.712 453.95 226.5 457 226.5C460.05 226.5 462.975 227.712 465.132 229.868C467.289 232.025 468.5 234.95 468.5 238C468.499 238.928 468.13 239.818 467.474 240.474C466.818 241.13 465.928 241.499 465 241.5ZM457 228.5C454.482 228.503 452.067 229.505 450.286 231.286C448.505 233.067 447.503 235.482 447.5 238C447.501 238.398 447.659 238.779 447.94 239.06C448.221 239.342 448.603 239.5 449 239.5H465C465.398 239.5 465.779 239.342 466.06 239.06C466.342 238.779 466.5 238.398 466.5 238C466.497 235.482 465.496 233.067 463.715 231.286C461.934 229.505 459.519 228.503 457 228.5Z" fill="white"/>
<path d="M457 254C473.569 254 487 240.569 487 224C487 207.431 473.569 194 457 194C440.431 194 427 207.431 427 224C427 240.569 440.431 254 457 254Z" fill="#6C63FF"/>
<path d="M457 254C473.569 254 487 240.569 487 224C487 207.431 473.569 194 457 194C440.431 194 427 207.431 427 224C427 240.569 440.431 254 457 254Z" fill="#6C63FF"/>
<path d="M457 224.5C455.22 224.5 453.48 223.972 452 222.983C450.52 221.994 449.367 220.589 448.685 218.944C448.004 217.3 447.826 215.49 448.173 213.744C448.52 211.999 449.378 210.395 450.636 209.136C451.895 207.878 453.499 207.02 455.244 206.673C456.99 206.326 458.8 206.504 460.444 207.185C462.089 207.866 463.495 209.02 464.483 210.5C465.472 211.98 466 213.72 466 215.5C465.998 217.886 465.048 220.174 463.361 221.861C461.674 223.548 459.386 224.498 457 224.5V224.5ZM457 208.5C455.616 208.5 454.262 208.911 453.111 209.68C451.96 210.449 451.063 211.542 450.533 212.821C450.003 214.101 449.865 215.508 450.135 216.866C450.405 218.224 451.072 219.471 452.051 220.45C453.029 221.429 454.277 222.096 455.635 222.366C456.992 222.636 458.4 222.497 459.679 221.967C460.958 221.438 462.051 220.54 462.821 219.389C463.59 218.238 464 216.885 464 215.5C463.998 213.644 463.26 211.865 461.948 210.553C460.635 209.241 458.856 208.502 457 208.5Z" fill="white"/>
<path d="M465 241.5H449C448.072 241.499 447.183 241.13 446.527 240.474C445.87 239.818 445.501 238.928 445.5 238C445.5 234.95 446.712 232.025 448.869 229.868C451.025 227.712 453.95 226.5 457 226.5C460.05 226.5 462.975 227.712 465.132 229.868C467.289 232.025 468.5 234.95 468.5 238C468.499 238.928 468.13 239.818 467.474 240.474C466.818 241.13 465.928 241.499 465 241.5ZM457 228.5C454.482 228.503 452.067 229.505 450.286 231.286C448.505 233.067 447.503 235.482 447.5 238C447.501 238.398 447.659 238.779 447.94 239.06C448.221 239.342 448.603 239.5 449 239.5H465C465.398 239.5 465.779 239.342 466.06 239.06C466.342 238.779 466.5 238.398 466.5 238C466.497 235.482 465.496 233.067 463.715 231.286C461.934 229.505 459.519 228.503 457 228.5V228.5Z" fill="white"/>
<path d="M643 253C659.569 253 673 239.569 673 223C673 206.431 659.569 193 643 193C626.431 193 613 206.431 613 223C613 239.569 626.431 253 643 253Z" fill="#6C63FF"/>
<path d="M643 253C659.569 253 673 239.569 673 223C673 206.431 659.569 193 643 193C626.431 193 613 206.431 613 223C613 239.569 626.431 253 643 253Z" fill="#6C63FF"/>
<path d="M643 223.5C641.22 223.5 639.48 222.972 638 221.983C636.52 220.994 635.367 219.589 634.685 217.944C634.004 216.3 633.826 214.49 634.173 212.744C634.52 210.999 635.378 209.395 636.636 208.136C637.895 206.878 639.499 206.02 641.244 205.673C642.99 205.326 644.8 205.504 646.444 206.185C648.089 206.866 649.495 208.02 650.483 209.5C651.472 210.98 652 212.72 652 214.5C651.998 216.886 651.048 219.174 649.361 220.861C647.674 222.548 645.386 223.498 643 223.5ZM643 207.5C641.616 207.5 640.262 207.911 639.111 208.68C637.96 209.449 637.063 210.542 636.533 211.821C636.003 213.101 635.865 214.508 636.135 215.866C636.405 217.224 637.072 218.471 638.051 219.45C639.029 220.429 640.277 221.096 641.635 221.366C642.992 221.636 644.4 221.497 645.679 220.967C646.958 220.438 648.051 219.54 648.821 218.389C649.59 217.238 650 215.885 650 214.5C649.998 212.644 649.26 210.865 647.948 209.553C646.635 208.241 644.856 207.502 643 207.5Z" fill="white"/>
<path d="M651 240.5H635C634.072 240.499 633.183 240.13 632.527 239.474C631.87 238.818 631.501 237.928 631.5 237C631.5 233.95 632.712 231.025 634.869 228.868C637.025 226.712 639.95 225.5 643 225.5C646.05 225.5 648.975 226.712 651.132 228.868C653.289 231.025 654.5 233.95 654.5 237C654.499 237.928 654.13 238.818 653.474 239.474C652.818 240.13 651.928 240.499 651 240.5ZM643 227.5C640.482 227.503 638.067 228.505 636.286 230.286C634.505 232.067 633.503 234.482 633.5 237C633.501 237.398 633.659 237.779 633.94 238.06C634.221 238.342 634.603 238.5 635 238.5H651C651.398 238.5 651.779 238.342 652.06 238.06C652.342 237.779 652.5 237.398 652.5 237C652.497 234.482 651.496 232.067 649.715 230.286C647.934 228.505 645.519 227.503 643 227.5Z" fill="white"/>
<path d="M167.056 510.198H179.316L185.148 462.91L167.054 462.911L167.056 510.198Z" fill="#FFB8B8"/>
<path d="M202.96 521.581L164.429 521.583L164.428 506.696L188.072 506.695C192.021 506.694 195.807 508.263 198.599 511.054C201.391 513.846 202.96 517.633 202.96 521.581V521.581L202.96 521.581Z" fill="#2F2E41"/>
<path d="M121.056 510.198H133.316L139.148 462.91L121.054 462.911L121.056 510.198Z" fill="#FFB8B8"/>
<path d="M156.96 521.581L118.429 521.583L118.428 506.696L142.072 506.695C146.021 506.694 149.807 508.263 152.599 511.054C155.391 513.846 156.96 517.633 156.96 521.581V521.581L156.96 521.581Z" fill="#2F2E41"/>
<path d="M122.553 369.36C123.874 368.51 124.992 367.381 125.83 366.053C126.667 364.724 127.203 363.228 127.4 361.67C127.596 360.112 127.449 358.529 126.968 357.034C126.487 355.539 125.684 354.168 124.615 353.017L132.688 238.459L109.435 240.714L108.796 352.901C106.981 354.824 105.935 357.346 105.855 359.989C105.776 362.632 106.668 365.212 108.364 367.241C110.06 369.27 112.441 370.606 115.056 370.996C117.671 371.387 120.339 370.805 122.553 369.36H122.553Z" fill="#FFB8B8"/>
<path d="M167.421 486.382C166.321 486.378 165.26 485.973 164.438 485.243C163.615 484.513 163.087 483.508 162.953 482.416L155.826 422.813C155.726 421.974 155.325 421.199 154.699 420.632C154.072 420.065 153.261 419.745 152.416 419.729C151.571 419.713 150.748 420.004 150.101 420.548C149.454 421.091 149.025 421.85 148.893 422.685L139.916 479.753C139.754 480.814 139.216 481.781 138.4 482.479C137.584 483.176 136.545 483.558 135.471 483.553H120.921C120.327 483.553 119.739 483.436 119.191 483.208C118.643 482.979 118.145 482.645 117.727 482.223C117.309 481.802 116.978 481.302 116.754 480.752C116.53 480.202 116.417 479.613 116.421 479.019L123.365 352.485C123.368 351.408 123.759 350.368 124.467 349.556C125.175 348.744 126.152 348.214 127.219 348.065L181.213 340.227C181.854 340.134 182.508 340.181 183.13 340.364C183.752 340.547 184.327 340.863 184.815 341.289C185.304 341.714 185.695 342.241 185.961 342.832C186.228 343.423 186.363 344.064 186.359 344.713L185.417 481.269C185.409 482.42 184.96 483.524 184.163 484.354C183.366 485.185 182.281 485.678 181.131 485.732L167.635 486.376C167.563 486.38 167.492 486.382 167.421 486.382Z" fill="#2F2E41"/>
<path d="M139.429 357.265C134.235 357.245 129.084 356.328 124.203 354.554C123.375 354.25 122.657 353.707 122.137 352.994C121.618 352.281 121.321 351.431 121.285 350.549C120.819 340.213 118.094 287.006 110.16 254.55C108.618 248.184 108.995 241.503 111.244 235.351C113.493 229.198 117.513 223.849 122.797 219.977C123.223 219.671 123.659 219.369 124.102 219.074C128.69 216.019 133.984 214.19 139.479 213.759C144.975 213.328 150.489 214.311 155.497 216.613C160.671 218.928 165.167 222.529 168.556 227.072C171.946 231.616 174.116 236.951 174.861 242.57L187.798 338.621C187.882 339.221 187.842 339.832 187.682 340.417C187.522 341.002 187.245 341.548 186.867 342.022C186.498 342.493 186.037 342.884 185.512 343.172C184.987 343.46 184.41 343.637 183.814 343.695C179.331 344.142 170.033 345.88 158.134 352.491C152.412 355.661 145.97 357.305 139.429 357.265V357.265Z" fill="#3F3D56"/>
<path d="M123.612 277.647L102.321 271.874C101.17 271.561 100.19 270.803 99.5969 269.768C99.0034 268.733 98.8448 267.505 99.1557 266.353L106.64 238.748C107.442 235.791 109.31 233.236 111.884 231.575C114.458 229.914 117.557 229.264 120.581 229.752C123.606 230.24 126.343 231.83 128.264 234.217C130.185 236.603 131.155 239.616 130.987 242.675L129.283 273.551C129.246 274.221 129.06 274.874 128.738 275.462C128.417 276.05 127.968 276.559 127.424 276.952C126.881 277.344 126.256 277.61 125.597 277.731C124.937 277.851 124.259 277.822 123.612 277.647V277.647Z" fill="#3F3D56"/>
<path d="M147.312 203.571C160.877 203.571 171.873 192.575 171.873 179.01C171.873 165.445 160.877 154.449 147.312 154.449C133.748 154.449 122.751 165.445 122.751 179.01C122.751 192.575 133.748 203.571 147.312 203.571Z" fill="#FFB8B8"/>
<path d="M236.316 227.265C236.193 227.804 236.113 228.353 236.077 228.905L193.119 253.687L182.678 247.676L171.547 262.248L193.884 278.169L242.892 239.506C244.891 240.246 247.067 240.359 249.132 239.832C251.197 239.304 253.053 238.16 254.452 236.553C255.851 234.945 256.727 232.949 256.965 230.831C257.202 228.713 256.789 226.573 255.78 224.696C254.772 222.818 253.216 221.292 251.319 220.321C249.422 219.349 247.274 218.978 245.161 219.257C243.048 219.536 241.07 220.451 239.49 221.882C237.91 223.312 236.803 225.19 236.316 227.265V227.265Z" fill="#FFB8B8"/>
<path d="M189.559 254.883L171.055 266.891C170.053 267.54 168.836 267.764 167.669 267.516C166.502 267.267 165.481 266.566 164.83 265.566L149.26 241.574C147.592 239.004 146.935 235.907 147.415 232.882C147.895 229.856 149.478 227.115 151.86 225.187C154.241 223.259 157.252 222.282 160.311 222.442C163.371 222.603 166.262 223.891 168.428 226.058L190.292 247.926C190.766 248.4 191.128 248.974 191.352 249.606C191.576 250.238 191.655 250.912 191.585 251.579C191.515 252.246 191.296 252.889 190.946 253.46C190.595 254.032 190.122 254.518 189.559 254.883Z" fill="#3F3D56"/>
<path d="M129.932 198.442C134.514 203.322 143.023 200.702 143.62 194.034C143.667 193.517 143.663 192.996 143.61 192.479C143.302 189.525 141.595 186.844 142.004 183.725C142.096 182.949 142.386 182.209 142.844 181.576C146.495 176.687 155.066 183.763 158.512 179.337C160.625 176.623 158.141 172.35 159.763 169.316C161.903 165.313 168.242 167.288 172.217 165.095C176.64 162.656 176.375 155.87 173.464 151.743C169.913 146.709 163.688 144.023 157.54 143.636C151.393 143.249 145.287 144.911 139.548 147.147C133.027 149.689 126.56 153.201 122.547 158.935C117.667 165.908 117.198 175.283 119.638 183.437C121.123 188.397 126.19 194.456 129.932 198.442Z" fill="#2F2E41"/>
<defs>
<clipPath id="clip0">
<rect width="913.214" height="482.652" fill="white"/>
</clipPath>
</defs>
</svg>
