<svg width="575" height="412" viewBox="0 0 575 412" fill="none" xmlns="http://www.w3.org/2000/svg">
<g clip-path="url(#clip0)">
<path d="M557.195 120.465H243.002C238.579 120.469 234.339 122.227 231.211 125.355C228.084 128.482 226.325 132.722 226.321 137.145V188.064C226.325 192.486 228.084 196.727 231.211 199.854C234.339 202.981 238.579 204.74 243.002 204.744H557.195C561.618 204.74 565.858 202.981 568.986 199.854C572.113 196.727 573.871 192.486 573.875 188.064V137.145C573.871 132.722 572.113 128.482 568.986 125.355C565.858 122.227 561.618 120.469 557.195 120.465V120.465Z" fill="#F2F2F2"/>
<path d="M126 411.085H1C0.734784 411.085 0.480414 410.979 0.292877 410.792C0.105341 410.604 0 410.35 0 410.085C0 409.819 0.105341 409.565 0.292877 409.378C0.480414 409.19 0.734784 409.085 1 409.085H126C126.265 409.085 126.52 409.19 126.707 409.378C126.895 409.565 127 409.819 127 410.085C127 410.35 126.895 410.604 126.707 410.792C126.52 410.979 126.265 411.085 126 411.085Z" fill="#3F3D56"/>
<path d="M107.647 97.9784C106.487 98.7101 105.503 99.6871 104.762 100.841C104.021 101.994 103.542 103.296 103.359 104.654C103.176 106.013 103.292 107.395 103.701 108.704C104.11 110.012 104.8 111.215 105.724 112.228L96.637 131.633L107.083 140.032L119.531 112.447C121.13 110.782 122.062 108.589 122.151 106.283C122.24 103.976 121.481 101.718 120.016 99.9341C118.551 98.1505 116.482 96.9664 114.203 96.6059C111.923 96.2455 109.59 96.7338 107.647 97.9784V97.9784Z" fill="#FFB8B8"/>
<path d="M55.4248 105.853C58.3008 104.126 61.7314 103.571 65.0051 104.305C68.2788 105.039 71.1444 107.005 73.0077 109.795L91.6025 137.637L98.058 123.406C98.4611 122.517 99.1751 121.806 100.066 121.408C100.956 121.009 101.962 120.949 102.893 121.24L112.637 124.284C113.146 124.443 113.618 124.702 114.025 125.046C114.433 125.39 114.767 125.812 115.009 126.288C115.251 126.763 115.395 127.282 115.434 127.814C115.472 128.345 115.404 128.88 115.233 129.385L108.563 149.079C107.719 151.57 106.31 153.832 104.445 155.687C102.58 157.542 100.31 158.939 97.8147 159.769C95.3189 160.599 92.6646 160.84 90.0603 160.471C87.4559 160.103 84.9724 159.136 82.8046 157.647V157.647C81.7916 156.951 80.8571 156.147 80.0172 155.249L52.6147 125.97C51.284 124.548 50.2882 122.847 49.7002 120.99C49.1121 119.134 48.9467 117.169 49.2161 115.241C49.4856 113.312 50.1829 111.468 51.2572 109.844C52.3315 108.22 53.7554 106.856 55.4248 105.853V105.853Z" fill="#CCCCCC"/>
<path d="M115.578 77.0852C116.077 77.0976 116.551 77.3077 116.895 77.6694C117.239 78.0311 117.425 78.5147 117.413 79.0138L117.253 85.4764L117.577 85.5059L117.46 89.8953L117.144 89.8558L116.569 113.008C116.549 113.801 116.242 114.559 115.704 115.141C115.166 115.724 114.435 116.091 113.647 116.174L98.9251 117.724C98.5666 117.761 98.2043 117.72 97.8634 117.603C97.5225 117.486 97.2114 117.296 96.9519 117.046C96.6923 116.796 96.4906 116.492 96.3609 116.156C96.2312 115.819 96.1765 115.459 96.2009 115.099L98.4337 82.1318C98.4806 81.4394 98.7617 80.7835 99.2307 80.272C99.6998 79.7605 100.329 79.4238 101.015 79.3172L115.227 77.1093C115.343 77.0903 115.46 77.0822 115.578 77.0852V77.0852Z" fill="#3F3D56"/>
<path d="M104.184 80.5164L111.656 79.3557C111.79 79.3348 111.914 79.2701 112.008 79.1718C112.102 79.0734 112.161 78.9467 112.176 78.8114V78.8114C112.193 78.6582 112.259 78.5148 112.366 78.4033C112.472 78.2919 112.613 78.2187 112.765 78.195L114.339 77.9505C114.554 77.9172 114.773 77.9313 114.982 77.992C115.19 78.0528 115.383 78.1585 115.546 78.3019C115.71 78.4453 115.84 78.6227 115.927 78.8217C116.014 79.0208 116.057 79.2365 116.051 79.4538L115.243 113.021C115.233 113.437 115.069 113.836 114.785 114.14C114.5 114.444 114.113 114.632 113.698 114.669L98.9866 115.977C98.7989 115.994 98.6099 115.97 98.4323 115.907C98.2548 115.843 98.093 115.743 97.9579 115.611C97.8228 115.48 97.7177 115.321 97.6497 115.145C97.5817 114.97 97.5524 114.781 97.5638 114.593L99.5487 81.9306C99.578 81.4494 99.7709 80.9926 100.096 80.6361C100.42 80.2797 100.857 80.0449 101.333 79.9709L102.992 79.7132C103.053 79.9726 103.21 80.1994 103.431 80.3483C103.652 80.4972 103.921 80.5573 104.184 80.5164V80.5164Z" fill="white"/>
<path d="M69.522 398.946L80.954 398.945L86.391 354.849L69.518 354.851L69.522 398.946Z" fill="#FFB8B8"/>
<path d="M103.003 409.559L67.0729 409.562L67.0717 395.68L89.1195 395.678C90.9425 395.678 92.7477 396.037 94.4319 396.735C96.1162 397.432 97.6466 398.454 98.9358 399.743C100.225 401.032 101.248 402.563 101.945 404.247C102.643 405.931 103.002 407.736 103.003 409.559V409.559L103.003 409.559Z" fill="#2F2E41"/>
<path d="M34.386 398.946L45.818 398.945L51.255 354.849L34.382 354.851L34.386 398.946Z" fill="#FFB8B8"/>
<path d="M67.8669 409.559L31.9372 409.562L31.9359 395.68L53.9838 395.678C57.6655 395.678 61.1965 397.14 63.8001 399.743C66.4037 402.346 67.8666 405.877 67.8669 409.559L67.8669 409.559Z" fill="#2F2E41"/>
<path d="M67.8669 90.8668C81.4316 90.8668 92.428 79.8704 92.428 66.3057C92.428 52.7411 81.4316 41.7447 67.8669 41.7447C54.3023 41.7447 43.3059 52.7411 43.3059 66.3057C43.3059 79.8704 54.3023 90.8668 67.8669 90.8668Z" fill="#FFB8B8"/>
<path d="M80.5075 132.018C80.3069 125.704 78.5292 119.54 75.3364 114.088C72.1436 108.636 67.6372 104.07 62.2279 100.806C55.8826 97.067 48.9371 95.6088 43.4115 101.134C40.0935 104.536 37.4364 108.524 35.5755 112.896C30.464 124.809 30.1296 138.232 34.6415 150.386L47.793 186.72L78.2322 190.017C78.804 190.079 79.3823 190.017 79.9279 189.835C80.4735 189.654 80.9734 189.356 81.3937 188.964C81.8139 188.571 82.1446 188.092 82.3631 187.56C82.5816 187.028 82.6828 186.456 82.6598 185.881L80.5075 132.018Z" fill="#2F2E41"/>
<path d="M49.723 182.246C49.723 182.246 26.9816 190.735 32.9273 226.684C38.2626 258.943 34.0227 366.014 33.096 387.658C33.0519 388.689 33.4088 389.698 34.0919 390.472C34.775 391.246 35.7312 391.726 36.7603 391.811L50.0353 392.917C51.075 393.004 52.1075 392.681 52.9124 392.017C53.7174 391.353 54.2311 390.401 54.344 389.364L61.1999 326.39C61.2268 326.143 61.3448 325.915 61.5309 325.75C61.7169 325.585 61.9577 325.496 62.2062 325.499C62.4548 325.502 62.6933 325.597 62.8753 325.767C63.0573 325.936 63.1696 326.167 63.1905 326.415L68.2992 387.01C68.3853 388.031 68.8598 388.98 69.625 389.661C70.3901 390.342 71.3876 390.704 72.4116 390.672L83.5618 390.319C84.0872 390.302 84.6042 390.182 85.0832 389.966C85.5622 389.749 85.9939 389.44 86.3534 389.057C86.713 388.673 86.9934 388.223 87.1787 387.731C87.3639 387.239 87.4504 386.715 87.4331 386.19L80.8649 186.445L49.723 182.246Z" fill="#2F2E41"/>
<path d="M72.7963 64.6875C81.0106 68.0565 91.5007 64.1211 95.4721 56.1805C99.4436 48.24 96.3006 37.4859 88.678 32.9339C81.0553 28.3819 70.097 30.7152 64.9898 37.9775C60.8354 30.4929 49.952 28.5848 42.4795 32.761C35.0071 36.9373 30.9369 45.685 30.4542 54.2317C29.9714 62.7783 32.5698 71.198 35.7395 79.1498C40.8667 92.0124 57.3725 98.9381 70.1427 93.5851C64.2965 84.8778 65.4506 72.1357 72.7963 64.6875Z" fill="#2F2E41"/>
<path d="M105.897 100.956C105.679 100.957 105.466 100.886 105.291 100.755L105.28 100.747L102.997 98.9998C102.891 98.9187 102.802 98.8176 102.736 98.7022C102.669 98.5868 102.626 98.4594 102.608 98.3273C102.591 98.1952 102.599 98.0609 102.634 97.9322C102.668 97.8034 102.728 97.6828 102.809 97.577C102.89 97.4712 102.991 97.3825 103.106 97.3158C103.222 97.2491 103.349 97.2058 103.481 97.1884C103.613 97.1709 103.748 97.1796 103.876 97.2141C104.005 97.2485 104.126 97.308 104.232 97.3891L105.711 98.5233L109.206 93.9633C109.287 93.8576 109.388 93.7689 109.503 93.7022C109.619 93.6356 109.746 93.5923 109.878 93.5748C110.01 93.5574 110.144 93.5661 110.273 93.6006C110.402 93.635 110.522 93.6944 110.628 93.7755L110.629 93.7757L110.607 93.8058L110.629 93.7757C110.842 93.9396 110.982 94.1814 111.017 94.4481C111.052 94.7148 110.98 94.9846 110.817 95.1982L106.706 100.559C106.61 100.683 106.488 100.783 106.348 100.851C106.208 100.92 106.054 100.955 105.898 100.955L105.897 100.956Z" fill="#6C63FF"/>
<path d="M557.49 -7.36328e-06H243.297C238.874 0.0039988 234.634 1.76268 231.507 4.88998C228.379 8.01727 226.621 12.2576 226.617 16.6803V67.5991C226.621 72.0217 228.379 76.2621 231.507 79.3894C234.634 82.5167 238.874 84.2754 243.297 84.2794H557.49C561.913 84.2754 566.154 82.5167 569.281 79.3894C572.408 76.2621 574.167 72.0217 574.171 67.5991V16.6803C574.167 12.2576 572.408 8.01725 569.281 4.88996C566.154 1.76267 561.913 0.00399879 557.49 -7.36328e-06ZM572.415 67.5991C572.409 71.5556 570.835 75.3484 568.037 78.1461C565.24 80.9438 561.447 82.518 557.49 82.5236H243.297C239.34 82.518 235.548 80.9438 232.75 78.1461C229.952 75.3484 228.378 71.5556 228.372 67.5991V16.6803C228.378 12.7238 229.952 8.93095 232.75 6.13328C235.548 3.33561 239.34 1.76141 243.297 1.75581H557.49C561.447 1.76141 565.24 3.33561 568.037 6.13328C570.835 8.93095 572.409 12.7238 572.415 16.6803V67.5991Z" fill="#3F3D56"/>
<path d="M307.236 71.1719C301.494 71.1719 295.881 69.4693 291.106 66.2792C286.332 63.0891 282.611 58.5549 280.413 53.25C278.216 47.945 277.641 42.1076 278.761 36.4759C279.881 30.8442 282.646 25.6711 286.707 21.6108C290.767 17.5506 295.94 14.7855 301.572 13.6653C307.203 12.5451 313.041 13.12 318.346 15.3174C323.651 17.5147 328.185 21.2359 331.375 26.0102C334.565 30.7845 336.268 36.3976 336.268 42.1397C336.259 49.8368 333.198 57.2161 327.755 62.6588C322.312 68.1015 314.933 71.1631 307.236 71.1719V71.1719Z" fill="#6C63FF"/>
<path d="M514.622 65.8433H363.719C361.857 65.8433 360.07 65.1033 358.753 63.7862C357.436 62.4691 356.696 60.6827 356.696 58.82C356.696 56.9573 357.436 55.1709 358.753 53.8538C360.07 52.5367 361.857 51.7967 363.719 51.7967H514.622C516.484 51.7967 518.271 52.5367 519.588 53.8538C520.905 55.1709 521.645 56.9573 521.645 58.82C521.645 60.6827 520.905 62.4691 519.588 63.7862C518.271 65.1033 516.484 65.8433 514.622 65.8433V65.8433Z" fill="#CCCCCC"/>
<path d="M413.662 35.9943H363.719C361.857 35.9943 360.07 35.2543 358.753 33.9372C357.436 32.6201 356.696 30.8337 356.696 28.971C356.696 27.1083 357.436 25.3219 358.753 24.0048C360.07 22.6877 361.857 21.9477 363.719 21.9477H413.662C415.525 21.9477 417.311 22.6877 418.628 24.0048C419.945 25.3219 420.685 27.1083 420.685 28.971C420.685 30.8337 419.945 32.6201 418.628 33.9372C417.311 35.2543 415.525 35.9943 413.662 35.9943V35.9943Z" fill="#CCCCCC"/>
<path d="M305.753 52.3517C305.033 52.353 304.331 52.1199 303.755 51.6878L303.719 51.661L296.195 45.9048C295.845 45.6379 295.552 45.3048 295.332 44.9244C295.111 44.5441 294.968 44.124 294.91 43.6883C294.852 43.2525 294.881 42.8096 294.994 42.3849C295.108 41.9602 295.304 41.5621 295.571 41.2132C295.839 40.8643 296.172 40.5716 296.553 40.3518C296.934 40.132 297.354 39.9894 297.79 39.9322C298.226 39.875 298.668 39.9043 299.093 40.0184C299.517 40.1325 299.915 40.3292 300.264 40.5972L305.138 44.3347L316.655 29.3091C316.922 28.9607 317.255 28.6684 317.635 28.4487C318.015 28.2291 318.435 28.0864 318.87 28.029C319.305 27.9715 319.747 28.0003 320.171 28.1137C320.596 28.2271 320.993 28.423 321.341 28.6901L321.342 28.6908L321.271 28.79L321.344 28.6908C322.047 29.2309 322.507 30.0278 322.623 30.9066C322.739 31.7854 322.501 32.6742 321.963 33.3781L308.416 51.0437C308.102 51.4508 307.699 51.7801 307.238 52.0063C306.777 52.2324 306.27 52.3493 305.756 52.3478L305.753 52.3517Z" fill="white"/>
<path d="M422.491 137H108.297C103.874 137.004 99.6339 138.763 96.5066 141.89C93.3793 145.017 91.6206 149.258 91.6166 153.68V204.599C91.6206 209.022 93.3793 213.262 96.5066 216.389C99.6339 219.517 103.874 221.275 108.297 221.279H422.491C426.913 221.275 431.154 219.517 434.281 216.389C437.408 213.262 439.167 209.022 439.171 204.599V153.68C439.167 149.258 437.408 145.017 434.281 141.89C431.154 138.763 426.913 137.004 422.491 137V137Z" fill="white"/>
<path d="M422.491 137H108.297C103.874 137.004 99.6339 138.763 96.5066 141.89C93.3793 145.017 91.6206 149.258 91.6166 153.68V204.599C91.6206 209.022 93.3793 213.262 96.5066 216.389C99.6339 219.517 103.874 221.275 108.297 221.279H422.491C426.913 221.275 431.154 219.517 434.281 216.389C437.408 213.262 439.167 209.022 439.171 204.599V153.68C439.167 149.258 437.408 145.017 434.281 141.89C431.154 138.763 426.913 137.004 422.491 137V137ZM437.415 204.599C437.409 208.556 435.835 212.348 433.038 215.146C430.24 217.944 426.447 219.518 422.491 219.524H108.297C104.34 219.518 100.548 217.944 97.7499 215.146C94.9522 212.348 93.378 208.556 93.3724 204.599V153.68C93.378 149.724 94.9522 145.931 97.7499 143.133C100.548 140.336 104.34 138.761 108.297 138.756H422.491C426.447 138.761 430.24 140.336 433.038 143.133C435.835 145.931 437.409 149.724 437.415 153.68V204.599Z" fill="#3F3D56"/>
<path d="M172.236 208.172C166.494 208.172 160.881 206.469 156.106 203.279C151.332 200.089 147.611 195.555 145.413 190.25C143.216 184.945 142.641 179.108 143.761 173.476C144.881 167.844 147.646 162.671 151.707 158.611C155.767 154.551 160.94 151.786 166.572 150.665C172.203 149.545 178.041 150.12 183.346 152.317C188.651 154.515 193.185 158.236 196.375 163.01C199.565 167.785 201.268 173.398 201.268 179.14C201.259 186.837 198.198 194.216 192.755 199.659C187.312 205.102 179.933 208.163 172.236 208.172V208.172Z" fill="#6C63FF"/>
<path d="M379.622 202.843H228.719C226.857 202.843 225.07 202.103 223.753 200.786C222.436 199.469 221.696 197.683 221.696 195.82C221.696 193.957 222.436 192.171 223.753 190.854C225.07 189.537 226.857 188.797 228.719 188.797H379.622C381.484 188.797 383.271 189.537 384.588 190.854C385.905 192.171 386.645 193.957 386.645 195.82C386.645 197.683 385.905 199.469 384.588 200.786C383.271 202.103 381.484 202.843 379.622 202.843V202.843Z" fill="#CCCCCC"/>
<path d="M278.662 172.994H228.719C227.797 172.994 226.884 172.813 226.032 172.46C225.179 172.107 224.405 171.589 223.753 170.937C223.101 170.285 222.584 169.511 222.231 168.659C221.878 167.807 221.696 166.893 221.696 165.971C221.696 165.049 221.878 164.135 222.231 163.283C222.584 162.431 223.101 161.657 223.753 161.005C224.405 160.353 225.179 159.835 226.032 159.482C226.884 159.129 227.797 158.948 228.719 158.948H278.662C280.525 158.948 282.311 159.688 283.628 161.005C284.945 162.322 285.685 164.108 285.685 165.971C285.685 167.834 284.945 169.62 283.628 170.937C282.311 172.254 280.525 172.994 278.662 172.994V172.994Z" fill="#CCCCCC"/>
<path d="M170.753 189.352C170.033 189.353 169.331 189.12 168.755 188.688L168.719 188.661L161.195 182.905C160.845 182.638 160.552 182.305 160.332 181.924C160.111 181.544 159.968 181.124 159.91 180.688C159.852 180.253 159.881 179.81 159.994 179.385C160.108 178.96 160.304 178.562 160.571 178.213C160.839 177.864 161.172 177.572 161.553 177.352C161.934 177.132 162.354 176.989 162.79 176.932C163.226 176.875 163.668 176.904 164.093 177.018C164.517 177.133 164.915 177.329 165.264 177.597L170.138 181.335L181.655 166.309C181.922 165.961 182.255 165.668 182.635 165.449C183.015 165.229 183.435 165.086 183.87 165.029C184.305 164.971 184.747 165 185.171 165.114C185.595 165.227 185.993 165.423 186.341 165.69L186.342 165.691L186.271 165.79L186.344 165.691C187.047 166.231 187.507 167.028 187.623 167.907C187.739 168.785 187.501 169.674 186.963 170.378L173.416 188.044C173.102 188.451 172.699 188.78 172.238 189.006C171.777 189.232 171.27 189.349 170.756 189.348L170.753 189.352Z" fill="white"/>
<path d="M98.1085 148.486C96.8459 147.952 95.4816 147.701 94.1117 147.752C92.7417 147.802 91.3995 148.152 90.1795 148.777C88.9595 149.403 87.8914 150.288 87.0505 151.37C86.2095 152.453 85.6162 153.707 85.3122 155.043L64.1919 158.661L63.2603 172.032L93.0145 166.504C95.2939 166.866 97.6269 166.379 99.5714 165.136C101.516 163.892 102.937 161.979 103.564 159.758C104.192 157.537 103.984 155.163 102.978 153.085C101.973 151.008 100.24 149.371 98.1085 148.486L98.1085 148.486Z" fill="#FFB8B8"/>
<path d="M61.8288 110.108C64.8891 111.483 67.3028 113.983 68.5693 117.089C69.8358 120.196 69.8579 123.671 68.6312 126.794L56.3885 157.956L71.7581 155.131C72.7178 154.954 73.709 155.135 74.5449 155.638C75.3808 156.142 76.0039 156.933 76.2968 157.864L79.3606 167.601C79.5207 168.11 79.5774 168.646 79.5275 169.176C79.4775 169.707 79.3219 170.223 79.0698 170.693C78.8177 171.163 78.4741 171.578 78.0594 171.913C77.6446 172.248 77.167 172.497 76.6547 172.645L56.6777 178.413C54.1507 179.142 51.4889 179.277 48.9014 178.804C46.3139 178.332 43.871 177.267 41.7645 175.692C39.6581 174.116 37.9454 172.075 36.7609 169.726C35.5764 167.378 34.9523 164.787 34.9377 162.156V162.156C34.9309 160.927 35.0572 159.701 35.3144 158.499L43.7084 119.286C44.116 117.381 44.9444 115.592 46.1329 114.05C47.3214 112.507 48.8398 111.25 50.5771 110.37C52.3143 109.49 54.2264 109.01 56.1733 108.964C58.1201 108.919 60.0525 109.31 61.8288 110.108Z" fill="#CCCCCC"/>
</g>
<defs>
<clipPath id="clip0">
<rect width="574.171" height="411.085" fill="white"/>
</clipPath>
</defs>
</svg>
