<svg width="1440" height="1024" viewBox="0 0 1440 1024" fill="none" xmlns="http://www.w3.org/2000/svg">
<rect width="1440" height="1024" fill="white"/>
<path d="M69 650.5L195.5 393H256L212.5 488.5H339L387 393L461 325H649L714 393V584.5L843.5 393H911V650.5H843.5V519.5L714 650.5H649V519.5L586 650.5H522.5H461L422.5 556.5L387 650.5H325H260L308 556.5H178.5L134 650.5H69Z" fill="black"/>
<path d="M461 325L387 393L339 488.5H212.5L256 393H195.5L69 650.5H134L178.5 556.5H308L260 650.5H325M461 325L325 650.5M461 325H649M325 650.5H387L422.5 556.5L461 650.5H522.5M649 325L586 519.5M649 325L714 393V584.5L843.5 393H911V650.5H843.5V519.5L714 650.5H649V519.5L586 650.5H522.5M586 519.5H475L522.5 650.5M586 519.5L522.5 650.5M502.5 372L461 466.5H527L570.5 372H502.5Z" stroke="#045852" stroke-width="5"/>
<path d="M519.333 326V272H467V246H519.333V195H551.81V246H609V272H551.81V326H519.333Z" fill="#B0240C" fill-opacity="0.97"/>
<path d="M519.333 326V195H551.81V326H519.333ZM467 246H609V272H467V246Z" stroke="#000405" stroke-width="3"/>
</svg>
